# xmcd CD database file
#
# Track frame offsets:
#	150
#	14756
#	74677
#	95995
#	126808
#	151192
#
# Disc length: 2951 seconds
#
# Revision: 0
# Processed by: cddbd v1.5.2PL0 Copyright (c) Steve Scherf et al.
# Submitted via: CDex 1.51
#
DISCID=540b8506
DTITLE=Moustache Mountain/Forrest/Ontayso - Anyteazers/Swepstone Songs/Dune
DYEAR=2008
DGENRE=New Age
TTITLE0=My Life Is A Boring CSI - Moustache Mountain
TTITLE1=Infiniteazerz - Moustache Mountain
TTITLE2=Quilted Pillows - Forrest
TTITLE3=The Basement Light - Forrest
TTITLE4=Figures (Fall Of The Good Leader) - Forrest
TTITLE5=Dune - Ontayso
EXTD=YEAR: 2008
EXTT0=
EXTT1=
EXTT2=
EXTT3=
EXTT4=
EXTT5=
PLAYORDER=
